<svg width="19" height="18" viewBox="0 0 19 18" fill="none" xmlns="http://www.w3.org/2000/svg">
<path d="M16.0667 1.38091C15.2333 1.19758 14.6167 0.205912 13.8083 0.0309118C13 -0.144088 12 0.489245 11.1833 0.305912C10.7537 0.154773 10.2957 0.101774 9.84286 0.150803C9.39006 0.199832 8.95399 0.349646 8.56667 0.589245L8.50833 12.4976L8.33333 13.3309C8.03333 14.6809 8.89167 16.0142 10.2417 16.3142C11.5833 16.6059 12.9167 15.7559 13.2167 14.4059L13.3917 13.5726L18.3333 2.73091C18.082 2.34931 17.7475 2.0296 17.3549 1.79579C16.9624 1.56197 16.5219 1.42013 16.0667 1.38091ZM11.5917 14.0476C11.4917 14.5059 11.0417 14.7976 10.5833 14.7059C10.1167 14.6059 9.825 14.1642 9.925 13.6892L10.6417 10.4142C10.6848 10.2018 10.8091 10.0146 10.988 9.89228C11.1669 9.76995 11.3864 9.72215 11.6 9.75901C11.8136 9.79587 12.0044 9.9145 12.132 10.0897C12.2596 10.265 12.3139 10.483 12.2833 10.6976C12.2833 10.7309 12.275 10.7559 12.2667 10.7892L11.5917 14.0476ZM7.26667 16.1142C6.94167 15.6059 6.73333 15.0392 6.66667 14.4476L6.03333 11.6642C5.91667 11.2226 6.175 10.7642 6.66667 10.6309C6.72749 10.6226 6.78917 10.6226 6.85 10.6309V1.18925C6.09167 1.18925 5.18333 0.714245 4.48333 0.880912C3.78333 1.04758 3.075 2.03091 2.26667 2.21425C1.34167 2.29758 0.508333 2.78925 0 3.56425L4.94167 14.3976L5.11667 15.2309C5.2589 15.878 5.65197 16.4423 6.20967 16.8001C6.76736 17.1578 7.44417 17.2798 8.09167 17.1392H8.175C7.81667 16.8476 7.5 16.5059 7.26667 16.1142Z" fill="white"/>
</svg>
