<svg width="102" height="102" viewBox="0 0 102 102" fill="none" xmlns="http://www.w3.org/2000/svg">
<path d="M51 2.03955C23.9598 2.03955 2.04004 23.9594 2.04004 50.9996C2.04004 78.0397 23.9598 99.9596 51 99.9596C78.0402 99.9596 99.96 78.0397 99.96 50.9996C99.96 23.9594 78.0402 2.03955 51 2.03955ZM69.8292 57.2777C69.8292 57.2777 74.1591 61.5515 75.225 63.5354C75.2556 63.5762 75.2709 63.617 75.2811 63.6373C75.7146 64.3666 75.8166 64.9328 75.6024 65.356C75.2454 66.0599 74.0214 66.4067 73.6032 66.4373H65.9532C65.4228 66.4373 64.311 66.2996 62.9646 65.3713C61.9293 64.6472 60.9093 63.4589 59.9148 62.3012C58.4307 60.5774 57.1455 59.0882 55.8501 59.0882C55.6856 59.0879 55.5221 59.1137 55.3656 59.1646C54.3864 59.4809 53.1318 60.8783 53.1318 64.6012C53.1318 65.764 52.2138 66.4322 51.5661 66.4322H48.0624C46.869 66.4322 40.6521 66.014 35.1441 60.2051C28.4019 53.0906 22.3329 38.8208 22.2819 38.6881C21.8994 37.765 22.6899 37.2704 23.5518 37.2704H31.2783C32.3085 37.2704 32.6451 37.8976 32.8797 38.4535C33.1551 39.1012 34.1649 41.6768 35.8224 44.5736C38.5101 49.2962 40.1574 51.2138 41.4783 51.2138C41.726 51.2108 41.9693 51.1478 42.1872 51.0302C43.911 50.0714 43.5897 43.9258 43.5132 42.6508C43.5132 42.4111 43.5081 39.9019 42.6258 38.6983C41.9934 37.8262 40.9173 37.4948 40.2645 37.3723C40.5288 37.0078 40.8769 36.7121 41.2794 36.5104C42.4626 35.9188 44.5944 35.8321 46.7109 35.8321H47.889C50.184 35.8628 50.7756 36.0107 51.6069 36.2197C53.2899 36.6227 53.3256 37.709 53.1777 41.4268C53.1318 42.4826 53.0859 43.676 53.0859 45.0836C53.0859 45.3896 53.0706 45.716 53.0706 46.0627C53.0196 47.9548 52.9584 50.102 54.2946 50.9842C54.4689 51.0935 54.6703 51.1518 54.876 51.1525C55.3401 51.1525 56.7375 51.1526 60.5217 44.6603C61.6888 42.5706 62.703 40.3991 63.5562 38.1628C63.6327 38.0302 63.8571 37.6222 64.1223 37.4641C64.3181 37.3644 64.5351 37.3136 64.7547 37.3162H73.8378C74.8272 37.3162 75.5055 37.4641 75.633 37.8466C75.8574 38.4535 75.5922 40.3049 71.4459 45.9199L69.5946 48.3629C65.8359 53.2895 65.8359 53.5394 69.8292 57.2777Z" fill="url(#paint0_linear_15_373)"/>
<defs>
<linearGradient id="paint0_linear_15_373" x1="51" y1="2.03955" x2="51" y2="99.9596" gradientUnits="userSpaceOnUse">
<stop stop-color="#5FC9F3"/>
<stop offset="1" stop-color="#55ABF5"/>
</linearGradient>
</defs>
</svg>
