<svg width="1440" height="115" viewBox="0 0 1440 115" fill="none" xmlns="http://www.w3.org/2000/svg">
<g opacity="0.54" filter="url(#filter0_f_15_294)">
<path fill-rule="evenodd" clip-rule="evenodd" d="M-3.99436e-07 14.2813L7.00972 30.6096C15.0208 46.9379 29.0403 79.3433 44.0611 92.1547C58.0805 104.715 73.1014 97.43 87.1208 90.3963C102.142 83.1114 116.161 75.8265 131.182 63.2662C145.201 50.4548 160.222 32.3681 175.243 39.653C189.262 46.938 204.283 79.3433 218.303 93.9132C233.324 108.483 247.343 104.715 262.364 90.3963C276.383 75.8265 291.404 50.4548 305.424 46.938C320.444 43.1699 335.465 61.2566 349.485 66.7831C364.506 72.3096 378.525 65.0247 393.546 65.0247C407.565 65.0247 422.586 72.3096 436.606 63.2663C451.626 54.2229 465.646 28.8513 480.667 34.1266C495.687 39.6531 509.707 75.8265 524.728 79.3434C538.747 83.1115 553.768 54.2229 567.788 52.2133C582.808 50.4549 596.828 75.8265 611.849 90.3964C625.868 104.715 640.889 108.483 655.91 99.4398C669.929 90.3964 684.95 68.5416 698.969 59.4983C713.99 50.4549 728.01 54.223 743.031 59.4983C757.05 65.0248 772.071 72.3097 786.09 75.8266C801.111 79.3434 816.132 79.3434 830.151 70.3001C845.172 61.2567 859.192 43.17 874.213 37.8947C888.232 32.3682 903.253 39.6531 917.272 43.17C932.293 46.9381 946.312 46.9381 961.333 50.4549C976.354 54.223 990.374 61.2567 1005.39 70.3001C1019.41 79.3435 1034.43 90.3965 1048.45 79.3435C1063.47 68.5417 1077.49 36.1363 1092.52 21.5665C1106.53 6.9966 1121.56 10.7647 1136.58 21.5665C1150.6 32.3683 1165.62 50.455 1179.64 48.6966C1194.66 46.9381 1208.68 25.0833 1223.7 27.093C1237.72 28.8514 1252.74 54.2231 1266.76 68.5417C1281.78 83.1116 1296.8 86.6285 1310.82 88.3869C1325.84 90.3965 1339.86 90.3965 1354.88 77.5851C1368.9 65.0249 1383.92 39.6532 1397.94 36.1364C1412.96 32.3683 1426.98 50.455 1434.99 59.4984L1442 68.5418L1442 112L1434.99 112C1426.98 112 1412.96 112 1397.94 112C1383.92 112 1368.9 112 1354.88 112C1339.86 112 1325.84 112 1310.82 112C1296.8 112 1281.78 112 1266.76 112C1252.74 112 1237.72 112 1223.7 112C1208.68 112 1194.66 112 1179.64 112C1165.62 112 1150.6 112 1136.58 112C1121.56 112 1106.53 112 1092.52 112C1077.49 112 1063.47 112 1048.45 112C1034.43 112 1019.41 112 1005.39 112C990.374 112 976.354 112 961.333 112C946.312 112 932.293 112 917.272 112C903.253 112 888.232 112 874.213 112C859.192 112 845.172 112 830.151 112C816.132 112 801.111 112 786.09 112C772.071 112 757.05 112 743.031 112C728.01 112 713.99 112 698.969 112C684.95 112 669.929 112 655.91 112C640.889 112 625.868 112 611.849 112C596.828 112 582.808 112 567.788 112C553.768 112 538.747 112 524.728 112C509.707 112 495.687 112 480.667 112C465.646 112 451.626 112 436.606 112C422.586 112 407.565 112 393.546 112C378.525 112 364.506 112 349.485 112C335.465 112 320.444 112 305.424 112C291.404 112 276.383 112 262.364 112C247.343 112 233.324 112 218.303 112C204.283 112 189.262 112 175.243 112C160.222 112 145.201 112 131.182 112C116.161 112 102.142 112 87.1208 112C73.1014 112 58.0805 112 44.0611 112C29.0403 112 15.0208 112 7.0097 112L-1.75088e-05 112L-3.99436e-07 14.2813Z" fill="#5FC9F3"/>
<path fill-rule="evenodd" clip-rule="evenodd" d="M-3.99436e-07 14.2813L7.00972 30.6096C15.0208 46.9379 29.0403 79.3433 44.0611 92.1547C58.0805 104.715 73.1014 97.43 87.1208 90.3963C102.142 83.1114 116.161 75.8265 131.182 63.2662C145.201 50.4548 160.222 32.3681 175.243 39.653C189.262 46.938 204.283 79.3433 218.303 93.9132C233.324 108.483 247.343 104.715 262.364 90.3963C276.383 75.8265 291.404 50.4548 305.424 46.938C320.444 43.1699 335.465 61.2566 349.485 66.7831C364.506 72.3096 378.525 65.0247 393.546 65.0247C407.565 65.0247 422.586 72.3096 436.606 63.2663C451.626 54.2229 465.646 28.8513 480.667 34.1266C495.687 39.6531 509.707 75.8265 524.728 79.3434C538.747 83.1115 553.768 54.2229 567.788 52.2133C582.808 50.4549 596.828 75.8265 611.849 90.3964C625.868 104.715 640.889 108.483 655.91 99.4398C669.929 90.3964 684.95 68.5416 698.969 59.4983C713.99 50.4549 728.01 54.223 743.031 59.4983C757.05 65.0248 772.071 72.3097 786.09 75.8266C801.111 79.3434 816.132 79.3434 830.151 70.3001C845.172 61.2567 859.192 43.17 874.213 37.8947C888.232 32.3682 903.253 39.6531 917.272 43.17C932.293 46.9381 946.312 46.9381 961.333 50.4549C976.354 54.223 990.374 61.2567 1005.39 70.3001C1019.41 79.3435 1034.43 90.3965 1048.45 79.3435C1063.47 68.5417 1077.49 36.1363 1092.52 21.5665C1106.53 6.9966 1121.56 10.7647 1136.58 21.5665C1150.6 32.3683 1165.62 50.455 1179.64 48.6966C1194.66 46.9381 1208.68 25.0833 1223.7 27.093C1237.72 28.8514 1252.74 54.2231 1266.76 68.5417C1281.78 83.1116 1296.8 86.6285 1310.82 88.3869C1325.84 90.3965 1339.86 90.3965 1354.88 77.5851C1368.9 65.0249 1383.92 39.6532 1397.94 36.1364C1412.96 32.3683 1426.98 50.455 1434.99 59.4984L1442 68.5418L1442 112L1434.99 112C1426.98 112 1412.96 112 1397.94 112C1383.92 112 1368.9 112 1354.88 112C1339.86 112 1325.84 112 1310.82 112C1296.8 112 1281.78 112 1266.76 112C1252.74 112 1237.72 112 1223.7 112C1208.68 112 1194.66 112 1179.64 112C1165.62 112 1150.6 112 1136.58 112C1121.56 112 1106.53 112 1092.52 112C1077.49 112 1063.47 112 1048.45 112C1034.43 112 1019.41 112 1005.39 112C990.374 112 976.354 112 961.333 112C946.312 112 932.293 112 917.272 112C903.253 112 888.232 112 874.213 112C859.192 112 845.172 112 830.151 112C816.132 112 801.111 112 786.09 112C772.071 112 757.05 112 743.031 112C728.01 112 713.99 112 698.969 112C684.95 112 669.929 112 655.91 112C640.889 112 625.868 112 611.849 112C596.828 112 582.808 112 567.788 112C553.768 112 538.747 112 524.728 112C509.707 112 495.687 112 480.667 112C465.646 112 451.626 112 436.606 112C422.586 112 407.565 112 393.546 112C378.525 112 364.506 112 349.485 112C335.465 112 320.444 112 305.424 112C291.404 112 276.383 112 262.364 112C247.343 112 233.324 112 218.303 112C204.283 112 189.262 112 175.243 112C160.222 112 145.201 112 131.182 112C116.161 112 102.142 112 87.1208 112C73.1014 112 58.0805 112 44.0611 112C29.0403 112 15.0208 112 7.0097 112L-1.75088e-05 112L-3.99436e-07 14.2813Z" stroke="black"/>
</g>
<path opacity="0.7" fill-rule="evenodd" clip-rule="evenodd" d="M-3.99436e-07 14.2813L7.00972 30.6096C15.0208 46.9379 29.0403 79.3433 44.0611 92.1547C58.0805 104.715 73.1014 97.43 87.1208 90.3963C102.142 83.1114 116.161 75.8265 131.182 63.2662C145.201 50.4548 160.222 32.3681 175.243 39.653C189.262 46.938 204.283 79.3433 218.303 93.9132C233.324 108.483 247.343 104.715 262.364 90.3963C276.383 75.8265 291.404 50.4548 305.424 46.938C320.444 43.1699 335.465 61.2566 349.485 66.7831C364.506 72.3096 378.525 65.0247 393.546 65.0247C407.565 65.0247 422.586 72.3096 436.606 63.2663C451.626 54.2229 465.646 28.8513 480.667 34.1266C495.687 39.6531 509.707 75.8265 524.728 79.3434C538.747 83.1115 553.768 54.2229 567.788 52.2133C582.808 50.4549 596.828 75.8265 611.849 90.3964C625.868 104.715 640.889 108.483 655.91 99.4398C669.929 90.3964 684.95 68.5416 698.969 59.4983C713.99 50.4549 728.01 54.223 743.031 59.4983C757.05 65.0248 772.071 72.3097 786.09 75.8266C801.111 79.3434 816.132 79.3434 830.151 70.3001C845.172 61.2567 859.192 43.17 874.213 37.8947C888.232 32.3682 903.253 39.6531 917.272 43.17C932.293 46.9381 946.312 46.9381 961.333 50.4549C976.354 54.223 990.374 61.2567 1005.39 70.3001C1019.41 79.3435 1034.43 90.3965 1048.45 79.3435C1063.47 68.5417 1077.49 36.1363 1092.52 21.5665C1106.53 6.9966 1121.56 10.7647 1136.58 21.5665C1150.6 32.3683 1165.62 50.455 1179.64 48.6966C1194.66 46.9381 1208.68 25.0833 1223.7 27.093C1237.72 28.8514 1252.74 54.2231 1266.76 68.5417C1281.78 83.1116 1296.8 86.6285 1310.82 88.3869C1325.84 90.3965 1339.86 90.3965 1354.88 77.5851C1368.9 65.0249 1383.92 39.6532 1397.94 36.1364C1412.96 32.3683 1426.98 50.455 1434.99 59.4984L1442 68.5418L1442 112L1434.99 112C1426.98 112 1412.96 112 1397.94 112C1383.92 112 1368.9 112 1354.88 112C1339.86 112 1325.84 112 1310.82 112C1296.8 112 1281.78 112 1266.76 112C1252.74 112 1237.72 112 1223.7 112C1208.68 112 1194.66 112 1179.64 112C1165.62 112 1150.6 112 1136.58 112C1121.56 112 1106.53 112 1092.52 112C1077.49 112 1063.47 112 1048.45 112C1034.43 112 1019.41 112 1005.39 112C990.374 112 976.354 112 961.333 112C946.312 112 932.293 112 917.272 112C903.253 112 888.232 112 874.213 112C859.192 112 845.172 112 830.151 112C816.132 112 801.111 112 786.09 112C772.071 112 757.05 112 743.031 112C728.01 112 713.99 112 698.969 112C684.95 112 669.929 112 655.91 112C640.889 112 625.868 112 611.849 112C596.828 112 582.808 112 567.788 112C553.768 112 538.747 112 524.728 112C509.707 112 495.687 112 480.667 112C465.646 112 451.626 112 436.606 112C422.586 112 407.565 112 393.546 112C378.525 112 364.506 112 349.485 112C335.465 112 320.444 112 305.424 112C291.404 112 276.383 112 262.364 112C247.343 112 233.324 112 218.303 112C204.283 112 189.262 112 175.243 112C160.222 112 145.201 112 131.182 112C116.161 112 102.142 112 87.1208 112C73.1014 112 58.0805 112 44.0611 112C29.0403 112 15.0208 112 7.0097 112L-1.75088e-05 112L-3.99436e-07 14.2813Z" fill="#5FC9F3"/>
<path fill-rule="evenodd" clip-rule="evenodd" d="M-3.51504e-07 30.0076L7.00972 44.3765C15.0208 58.7454 29.0403 87.2621 44.0611 98.5361C58.0805 109.589 73.1014 103.178 87.1208 96.9887C102.142 90.578 116.161 84.1673 131.182 73.1143C145.201 61.8402 160.222 45.9239 175.243 52.3347C189.262 58.7454 204.283 87.2621 218.303 100.084C233.324 112.905 247.343 109.589 262.364 96.9888C276.383 84.1673 291.404 61.8402 305.424 58.7454C320.444 55.4295 335.465 71.3458 349.485 76.2092C364.506 81.0725 378.525 74.6617 393.546 74.6617C407.565 74.6617 422.586 81.0725 436.606 73.1143C451.626 65.1562 465.646 42.8291 480.667 47.4714C495.687 52.3347 509.707 84.1673 524.728 87.2622C538.747 90.5781 553.768 65.1562 567.788 63.3877C582.808 61.8403 596.828 84.1674 611.849 96.9888C625.868 109.589 640.889 112.905 655.91 104.947C669.929 96.9888 684.95 77.7566 698.969 69.7985C713.99 61.8403 728.01 65.1562 743.031 69.7985C757.05 74.6618 772.071 81.0725 786.09 84.1674C801.111 87.2622 816.132 87.2622 830.151 79.3041C845.172 71.3459 859.192 55.4296 874.213 50.7874C888.232 45.924 903.253 52.3348 917.272 55.4296C932.293 58.7455 946.312 58.7455 961.333 61.8404C976.354 65.1563 990.374 71.3459 1005.39 79.3041C1019.41 87.2623 1034.43 96.9889 1048.45 87.2623C1063.47 77.7567 1077.49 49.24 1092.52 36.4185C1106.53 23.597 1121.56 26.9129 1136.58 36.4185C1150.6 45.9241 1165.62 61.8404 1179.64 60.293C1194.66 58.7456 1208.68 39.5134 1223.7 41.2818C1237.72 42.8293 1252.74 65.1563 1266.76 77.7567C1281.78 90.5782 1296.8 93.673 1310.82 95.2205C1325.84 96.989 1339.86 96.989 1354.88 85.7149C1368.9 74.6619 1383.92 52.3349 1397.94 49.24C1412.96 45.9241 1426.98 61.8404 1434.99 69.7986L1442 77.7568L1442 116L1434.99 116C1426.98 116 1412.96 116 1397.94 116C1383.92 116 1368.9 116 1354.88 116C1339.86 116 1325.84 116 1310.82 116C1296.8 116 1281.78 116 1266.76 116C1252.74 116 1237.72 116 1223.7 116C1208.68 116 1194.66 116 1179.64 116C1165.62 116 1150.6 116 1136.58 116C1121.56 116 1106.53 116 1092.52 116C1077.49 116 1063.47 116 1048.45 116C1034.43 116 1019.41 116 1005.39 116C990.374 116 976.354 116 961.333 116C946.312 116 932.293 116 917.272 116C903.253 116 888.232 116 874.213 116C859.192 116 845.172 116 830.151 116C816.132 116 801.111 116 786.09 116C772.071 116 757.05 116 743.031 116C728.01 116 713.99 116 698.969 116C684.95 116 669.929 116 655.91 116C640.889 116 625.868 116 611.849 116C596.828 116 582.808 116 567.788 116C553.768 116 538.747 116 524.728 116C509.707 116 495.687 116 480.667 116C465.646 116 451.626 116 436.606 116C422.586 116 407.565 116 393.546 116C378.525 116 364.506 116 349.485 116C335.465 116 320.444 116 305.424 116C291.404 116 276.383 116 262.364 116C247.343 116 233.324 116 218.303 116C204.283 116 189.262 116 175.243 116C160.222 116 145.201 116 131.182 116C116.161 116 102.142 116 87.1208 116C73.1014 116 58.0805 116 44.0611 116C29.0403 116 15.0208 116 7.00971 116L-1.54078e-05 116L-3.51504e-07 30.0076Z" fill="url(#paint0_linear_15_294)"/>
<defs>
<filter id="filter0_f_15_294" x="-25" y="-12.9998" width="1492" height="150" filterUnits="userSpaceOnUse" color-interpolation-filters="sRGB">
<feFlood flood-opacity="0" result="BackgroundImageFix"/>
<feBlend mode="normal" in="SourceGraphic" in2="BackgroundImageFix" result="shape"/>
<feGaussianBlur stdDeviation="12.5" result="effect1_foregroundBlur_15_294"/>
</filter>
<linearGradient id="paint0_linear_15_294" x1="721" y1="116" x2="730.5" y2="-239" gradientUnits="userSpaceOnUse">
<stop stop-color="#5FC9F3"/>
<stop offset="1" stop-color="#55ABF5"/>
</linearGradient>
</defs>
</svg>
