<svg width="1440" height="122" viewBox="0 0 1440 122" fill="none" xmlns="http://www.w3.org/2000/svg">
<g opacity="0.54" filter="url(#filter0_f_15_295)">
<path fill-rule="evenodd" clip-rule="evenodd" d="M1440 100.719L1433 84.3904C1425 68.0621 1411 35.6567 1396 22.8453C1382 10.2851 1367 17.57 1353 24.6037C1338 31.8886 1324 39.1736 1309 51.7338C1295 64.5452 1280 82.6319 1265 75.347C1251 68.0621 1236 35.6567 1222 21.0868C1207 6.51697 1193 10.285 1178 24.6037C1164 39.1735 1149 64.5452 1135 68.0621C1120 71.8301 1105 53.7434 1091 48.2169C1076 42.6904 1062 49.9753 1047 49.9753C1033 49.9753 1018 42.6904 1004 51.7338C989 60.7771 975 86.1488 960 80.8735C945 75.347 931 39.1735 916 35.6567C902 31.8886 887 60.7771 873 62.7867C858 64.5452 844 39.1735 829 24.6037C815 10.285 800 6.51693 785 15.5603C771 24.6036 756 46.4584 742 55.5018C727 64.5452 713 60.7771 698 55.5018C684 49.9753 669 42.6904 655 39.1735C640 35.6566 625 35.6566 611 44.7C596 53.7434 582 71.8301 567 77.1054C553 82.6319 538 75.3469 524 71.8301C509 68.062 495 68.062 480 64.5451C465 60.7771 451 53.7433 436 44.7C422 35.6566 407 24.6036 393 35.6566C378 46.4584 364 78.8638 349 93.4336C335 108.003 320 104.235 305 93.4336C291 82.6318 276 64.5451 262 66.3035C247 68.062 233 89.9168 218 87.9071C204 86.1487 189 60.777 175 46.4584C160 31.8885 145 28.3717 131 26.6132C116 24.6036 102 24.6036 87 37.415C73 49.9752 58 75.3469 44 78.8638C29 82.6318 15 64.5451 7 55.5017L4.94302e-06 46.4584L8.74227e-06 3L7.00001 3C15 3 29 3 44 3C58 3 73 3 87 3C102 3.00001 116 3.00001 131 3.00001C145 3.00001 160 3.00001 175 3.00001C189 3.00001 204 3.00001 218 3.00002C233 3.00002 247 3.00002 262 3.00002C276 3.00002 291 3.00002 305 3.00002C320 3.00002 335 3.00003 349 3.00003C364 3.00003 378 3.00003 393 3.00003C407 3.00003 422 3.00003 436 3.00003C451 3.00004 465 3.00004 480 3.00004C495 3.00004 509 3.00004 524 3.00004C538 3.00004 553 3.00004 567 3.00005C582 3.00005 596 3.00005 611 3.00005C625 3.00005 640 3.00005 655 3.00005C669 3.00005 684 3.00006 698 3.00006C713 3.00006 727 3.00006 742 3.00006C756 3.00006 771 3.00006 785 3.00006C800 3.00007 815 3.00007 829 3.00007C844 3.00007 858 3.00007 873 3.00007C887 3.00007 902 3.00008 916 3.00008C931 3.00008 945 3.00008 960 3.00008C975 3.00008 989 3.00008 1004 3.00008C1018 3.00009 1033 3.00009 1047 3.00009C1062 3.00009 1076 3.00009 1091 3.00009C1105 3.00009 1120 3.00009 1135 3.0001C1149 3.0001 1164 3.0001 1178 3.0001C1193 3.0001 1207 3.0001 1222 3.0001C1236 3.0001 1251 3.00011 1265 3.00011C1280 3.00011 1295 3.00011 1309 3.00011C1324 3.00011 1338 3.00011 1353 3.00011C1367 3.00012 1382 3.00012 1396 3.00012C1411 3.00012 1425 3.00012 1433 3.00012L1440 3.00012L1440 100.719Z" fill="#5FC9F3"/>
<path fill-rule="evenodd" clip-rule="evenodd" d="M1440 100.719L1433 84.3904C1425 68.0621 1411 35.6567 1396 22.8453C1382 10.2851 1367 17.57 1353 24.6037C1338 31.8886 1324 39.1736 1309 51.7338C1295 64.5452 1280 82.6319 1265 75.347C1251 68.0621 1236 35.6567 1222 21.0868C1207 6.51697 1193 10.285 1178 24.6037C1164 39.1735 1149 64.5452 1135 68.0621C1120 71.8301 1105 53.7434 1091 48.2169C1076 42.6904 1062 49.9753 1047 49.9753C1033 49.9753 1018 42.6904 1004 51.7338C989 60.7771 975 86.1488 960 80.8735C945 75.347 931 39.1735 916 35.6567C902 31.8886 887 60.7771 873 62.7867C858 64.5452 844 39.1735 829 24.6037C815 10.285 800 6.51693 785 15.5603C771 24.6036 756 46.4584 742 55.5018C727 64.5452 713 60.7771 698 55.5018C684 49.9753 669 42.6904 655 39.1735C640 35.6566 625 35.6566 611 44.7C596 53.7434 582 71.8301 567 77.1054C553 82.6319 538 75.3469 524 71.8301C509 68.062 495 68.062 480 64.5451C465 60.7771 451 53.7433 436 44.7C422 35.6566 407 24.6036 393 35.6566C378 46.4584 364 78.8638 349 93.4336C335 108.003 320 104.235 305 93.4336C291 82.6318 276 64.5451 262 66.3035C247 68.062 233 89.9168 218 87.9071C204 86.1487 189 60.777 175 46.4584C160 31.8885 145 28.3717 131 26.6132C116 24.6036 102 24.6036 87 37.415C73 49.9752 58 75.3469 44 78.8638C29 82.6318 15 64.5451 7 55.5017L4.94302e-06 46.4584L8.74227e-06 3L7.00001 3C15 3 29 3 44 3C58 3 73 3 87 3C102 3.00001 116 3.00001 131 3.00001C145 3.00001 160 3.00001 175 3.00001C189 3.00001 204 3.00001 218 3.00002C233 3.00002 247 3.00002 262 3.00002C276 3.00002 291 3.00002 305 3.00002C320 3.00002 335 3.00003 349 3.00003C364 3.00003 378 3.00003 393 3.00003C407 3.00003 422 3.00003 436 3.00003C451 3.00004 465 3.00004 480 3.00004C495 3.00004 509 3.00004 524 3.00004C538 3.00004 553 3.00004 567 3.00005C582 3.00005 596 3.00005 611 3.00005C625 3.00005 640 3.00005 655 3.00005C669 3.00005 684 3.00006 698 3.00006C713 3.00006 727 3.00006 742 3.00006C756 3.00006 771 3.00006 785 3.00006C800 3.00007 815 3.00007 829 3.00007C844 3.00007 858 3.00007 873 3.00007C887 3.00007 902 3.00008 916 3.00008C931 3.00008 945 3.00008 960 3.00008C975 3.00008 989 3.00008 1004 3.00008C1018 3.00009 1033 3.00009 1047 3.00009C1062 3.00009 1076 3.00009 1091 3.00009C1105 3.00009 1120 3.00009 1135 3.0001C1149 3.0001 1164 3.0001 1178 3.0001C1193 3.0001 1207 3.0001 1222 3.0001C1236 3.0001 1251 3.00011 1265 3.00011C1280 3.00011 1295 3.00011 1309 3.00011C1324 3.00011 1338 3.00011 1353 3.00011C1367 3.00012 1382 3.00012 1396 3.00012C1411 3.00012 1425 3.00012 1433 3.00012L1440 3.00012L1440 100.719Z" stroke="black"/>
</g>
<path opacity="0.7" fill-rule="evenodd" clip-rule="evenodd" d="M1440 100.719L1433 84.3904C1425 68.0621 1411 35.6567 1396 22.8453C1382 10.2851 1367 17.57 1353 24.6037C1338 31.8886 1324 39.1736 1309 51.7338C1295 64.5452 1280 82.6319 1265 75.347C1251 68.0621 1236 35.6567 1222 21.0868C1207 6.51697 1193 10.285 1178 24.6037C1164 39.1735 1149 64.5452 1135 68.0621C1120 71.8301 1105 53.7434 1091 48.2169C1076 42.6904 1062 49.9753 1047 49.9753C1033 49.9753 1018 42.6904 1004 51.7338C989 60.7771 975 86.1488 960 80.8735C945 75.347 931 39.1735 916 35.6567C902 31.8886 887 60.7771 873 62.7867C858 64.5452 844 39.1735 829 24.6037C815 10.285 800 6.51693 785 15.5603C771 24.6036 756 46.4584 742 55.5018C727 64.5452 713 60.7771 698 55.5018C684 49.9753 669 42.6904 655 39.1735C640 35.6566 625 35.6566 611 44.7C596 53.7434 582 71.8301 567 77.1054C553 82.6319 538 75.3469 524 71.8301C509 68.062 495 68.062 480 64.5451C465 60.7771 451 53.7433 436 44.7C422 35.6566 407 24.6036 393 35.6566C378 46.4584 364 78.8638 349 93.4336C335 108.003 320 104.235 305 93.4336C291 82.6318 276 64.5451 262 66.3035C247 68.062 233 89.9168 218 87.9071C204 86.1487 189 60.777 175 46.4584C160 31.8885 145 28.3717 131 26.6132C116 24.6036 102 24.6036 87 37.415C73 49.9752 58 75.3469 44 78.8638C29 82.6318 15 64.5451 7 55.5017L4.94302e-06 46.4584L8.74227e-06 3L7.00001 3C15 3 29 3 44 3C58 3 73 3 87 3C102 3.00001 116 3.00001 131 3.00001C145 3.00001 160 3.00001 175 3.00001C189 3.00001 204 3.00001 218 3.00002C233 3.00002 247 3.00002 262 3.00002C276 3.00002 291 3.00002 305 3.00002C320 3.00002 335 3.00003 349 3.00003C364 3.00003 378 3.00003 393 3.00003C407 3.00003 422 3.00003 436 3.00003C451 3.00004 465 3.00004 480 3.00004C495 3.00004 509 3.00004 524 3.00004C538 3.00004 553 3.00004 567 3.00005C582 3.00005 596 3.00005 611 3.00005C625 3.00005 640 3.00005 655 3.00005C669 3.00005 684 3.00006 698 3.00006C713 3.00006 727 3.00006 742 3.00006C756 3.00006 771 3.00006 785 3.00006C800 3.00007 815 3.00007 829 3.00007C844 3.00007 858 3.00007 873 3.00007C887 3.00007 902 3.00008 916 3.00008C931 3.00008 945 3.00008 960 3.00008C975 3.00008 989 3.00008 1004 3.00008C1018 3.00009 1033 3.00009 1047 3.00009C1062 3.00009 1076 3.00009 1091 3.00009C1105 3.00009 1120 3.00009 1135 3.0001C1149 3.0001 1164 3.0001 1178 3.0001C1193 3.0001 1207 3.0001 1222 3.0001C1236 3.0001 1251 3.00011 1265 3.00011C1280 3.00011 1295 3.00011 1309 3.00011C1324 3.00011 1338 3.00011 1353 3.00011C1367 3.00012 1382 3.00012 1396 3.00012C1411 3.00012 1425 3.00012 1433 3.00012L1440 3.00012L1440 100.719Z" fill="#5FC9F3"/>
<path fill-rule="evenodd" clip-rule="evenodd" d="M1440 84.9924L1433 70.6235C1425 56.2546 1411 27.7379 1396 16.4639C1382 5.41086 1367 11.8216 1353 18.0113C1338 24.422 1324 30.8327 1309 41.8857C1295 53.1598 1280 69.0761 1265 62.6654C1251 56.2546 1236 27.7379 1222 14.9164C1207 2.09495 1193 5.41084 1178 18.0113C1164 30.8327 1149 53.1598 1135 56.2546C1120 59.5705 1105 43.6542 1091 38.7909C1076 33.9276 1062 40.3383 1047 40.3383C1033 40.3383 1018 33.9276 1004 41.8857C989 49.8439 975 72.1709 960 67.5287C945 62.6653 931 30.8327 916 27.7379C902 24.422 887 49.8439 873 51.6123C858 53.1598 844 30.8327 829 18.0112C815 5.41081 800 2.09491 785 10.0531C771 18.0112 756 37.2434 742 45.2016C727 53.1597 713 49.8438 698 45.2016C684 40.3383 669 33.9275 655 30.8327C640 27.7378 625 27.7378 611 35.696C596 43.6542 582 59.5705 567 64.2127C553 69.076 538 62.6653 524 59.5705C509 56.2546 495 56.2546 480 53.1597C465 49.8438 451 43.6541 436 35.696C422 27.7378 407 18.0112 393 27.7378C378 37.2434 364 65.7601 349 78.5816C335 91.4031 320 88.0872 305 78.5816C291 69.076 276 53.1597 262 54.7071C247 56.2545 233 75.4867 218 73.7183C204 72.1708 189 49.8438 175 37.2434C160 24.4219 145 21.3271 131 19.7796C116 18.0112 102 18.0112 87 29.2852C73 40.3382 58 62.6653 44 65.7601C29 69.076 15 53.1597 7 45.2015L4.34985e-06 37.2434L7.69319e-06 -0.999996L7.00001 -0.999996C15 -0.999995 29 -0.999994 44 -0.999992C58 -0.999991 73 -0.99999 87 -0.999989C102 -0.999987 116 -0.999986 131 -0.999985C145 -0.999984 160 -0.999982 175 -0.999981C189 -0.99998 204 -0.999978 218 -0.999977C233 -0.999976 247 -0.999975 262 -0.999973C276 -0.999972 291 -0.999971 305 -0.99997C320 -0.999968 335 -0.999967 349 -0.999966C364 -0.999964 378 -0.999963 393 -0.999962C407 -0.999961 422 -0.999959 436 -0.999958C451 -0.999957 465 -0.999956 480 -0.999954C495 -0.999953 509 -0.999952 524 -0.99995C538 -0.999949 553 -0.999948 567 -0.999947C582 -0.999945 596 -0.999944 611 -0.999943C625 -0.999942 640 -0.99994 655 -0.999939C669 -0.999938 684 -0.999936 698 -0.999935C713 -0.999934 727 -0.999933 742 -0.999931C756 -0.99993 771 -0.999929 785 -0.999928C800 -0.999926 815 -0.999925 829 -0.999924C844 -0.999922 858 -0.999921 873 -0.99992C887 -0.999919 902 -0.999917 916 -0.999916C931 -0.999915 945 -0.999914 960 -0.999912C975 -0.999911 989 -0.99991 1004 -0.999908C1018 -0.999907 1033 -0.999906 1047 -0.999905C1062 -0.999903 1076 -0.999902 1091 -0.999901C1105 -0.9999 1120 -0.999898 1135 -0.999897C1149 -0.999896 1164 -0.999894 1178 -0.999893C1193 -0.999892 1207 -0.999891 1222 -0.999889C1236 -0.999888 1251 -0.999887 1265 -0.999886C1280 -0.999884 1295 -0.999883 1309 -0.999882C1324 -0.99988 1338 -0.999879 1353 -0.999878C1367 -0.999877 1382 -0.999875 1396 -0.999874C1411 -0.999873 1425 -0.999872 1433 -0.999871L1440 -0.99987L1440 84.9924Z" fill="url(#paint0_linear_15_295)"/>
<defs>
<filter id="filter0_f_15_295" x="-25" y="-22" width="1490" height="150" filterUnits="userSpaceOnUse" color-interpolation-filters="sRGB">
<feFlood flood-opacity="0" result="BackgroundImageFix"/>
<feBlend mode="normal" in="SourceGraphic" in2="BackgroundImageFix" result="shape"/>
<feGaussianBlur stdDeviation="12.5" result="effect1_foregroundBlur_15_295"/>
</filter>
<linearGradient id="paint0_linear_15_295" x1="720" y1="86.9999" x2="720" y2="-0.999933" gradientUnits="userSpaceOnUse">
<stop stop-color="#5FC9F3"/>
<stop offset="1" stop-color="#55ABF5"/>
</linearGradient>
</defs>
</svg>
