<svg width="1440" height="103" viewBox="0 0 1440 103" fill="none" xmlns="http://www.w3.org/2000/svg">
<g clip-path="url(#clip0_6580_796)">
<path fill-rule="evenodd" clip-rule="evenodd" d="M-3.98901e-07 5.28109L7 21.6094C15 37.9377 29 70.3431 44 83.1545C58 95.7147 73 88.4298 87 81.3961C102 74.1111 116 66.8262 131 54.266C145 41.4546 160 23.3678 175 30.6528C189 37.9377 204 70.3431 218 84.9129C233 99.4828 247 95.7147 262 81.3961C276 66.8262 291 41.4546 305 37.9377C320 34.1697 335 52.2564 349 57.7829C364 63.3094 378 56.0245 393 56.0245C407 56.0245 422 63.3094 436 54.266C451 45.2227 465 19.851 480 25.1263C495 30.6528 509 66.8263 524 70.3431C538 74.1112 553 45.2227 567 43.2131C582 41.4546 596 66.8263 611 81.3962C625 95.7148 640 99.4829 655 90.4395C669 81.3962 684 59.5414 698 50.498C713 41.4547 727 45.2227 742 50.498C756 56.0245 771 63.3095 785 66.8263C800 70.3432 815 70.3432 829 61.2998C844 52.2565 858 34.1698 873 28.8945C887 23.368 902 30.6529 916 34.1698C931 37.9378 945 37.9378 960 41.4547C975 45.2228 989 52.2565 1004 61.2999C1018 70.3432 1033 81.3962 1047 70.3432C1062 59.5414 1076 27.1361 1091 12.5662C1105 -2.00364 1120 1.76443 1135 12.5662C1149 23.368 1164 41.4547 1178 39.6963C1193 37.9379 1207 16.0831 1222 18.0927C1236 19.8512 1251 45.2228 1265 59.5415C1280 74.1113 1295 77.6282 1309 79.3866C1324 81.3963 1338 81.3963 1353 68.5849C1367 56.0246 1382 30.653 1396 27.1361C1411 23.3681 1425 41.4548 1433 50.4981L1440 59.5415L1440 103L1433 103C1425 103 1411 103 1396 103C1382 103 1367 103 1353 103C1338 103 1324 103 1309 103C1295 103 1280 103 1265 103C1251 103 1236 103 1222 103C1207 103 1193 103 1178 103C1164 103 1149 103 1135 103C1120 103 1105 103 1091 103C1076 103 1062 103 1047 103C1033 103 1018 103 1004 103C989 103 975 103 960 103C945 103 931 103 916 103C902 103 887 103 873 103C858 103 844 103 829 103C815 103 800 103 785 103C771 103 756 103 742 103C727 103 713 103 698 103C684 103 669 103 655 103C640 103 625 103 611 103C596 103 582 103 567 103C553 103 538 103 524 103C509 103 495 103 480 103C465 103 451 103 436 103C422 103 407 103 393 103C378 103 364 103 349 103C335 103 320 103 305 103C291 103 276 103 262 103C247 103 233 103 218 103C204 103 189 103 175 103C160 103 145 103 131 103C116 103 102 103 87 103C73 103 58 103 44 103C29 103 15 103 6.99998 103L-1.74854e-05 103L-3.98901e-07 5.28109Z" fill="#1E549F"/>
</g>
<defs>
<clipPath id="clip0_6580_796">
<rect width="1440" height="103" fill="white"/>
</clipPath>
</defs>
</svg>
